<?xml version="1.0" encoding="UTF-8"?>
<svg version="1.1" xmlns="http://www.w3.org/2000/svg" width="512" height="512">
<path d="M0 0 C1.01790619 0.00215515 2.03581238 0.0043103 3.08456421 0.00653076 C17.69363523 0.05620146 32.02575853 0.30709809 46.375 3.3125 C47.34985352 3.51117676 48.32470703 3.70985352 49.32910156 3.91455078 C97.7109774 14.03517194 141.69928269 35.9516877 177.375 70.3125 C178.3640332 71.26068604 178.3640332 71.26068604 179.37304688 72.22802734 C188.86130305 81.37247479 197.6012044 90.66984009 205.375 101.3125 C206.23306152 102.46355017 207.09113451 103.61459177 207.94921875 104.765625 C213.98736829 112.95680614 219.34595521 121.47054105 224.375 130.3125 C224.73948242 130.94430176 225.10396484 131.57610352 225.47949219 132.22705078 C247.08534998 169.97532572 256.85198095 212.74189997 256.6875 255.9375 C256.68534485 256.95540619 256.6831897 257.97331238 256.68096924 259.02206421 C256.63129854 273.63113523 256.38040191 287.96325853 253.375 302.3125 C253.07698486 303.77478027 253.07698486 303.77478027 252.77294922 305.26660156 C242.65232806 353.6484774 220.7358123 397.63678269 186.375 433.3125 C185.74287598 433.97185547 185.11075195 434.63121094 184.45947266 435.31054688 C175.31502521 444.79880305 166.01765991 453.5387044 155.375 461.3125 C154.22394983 462.17056152 153.07290823 463.02863451 151.921875 463.88671875 C143.73224019 469.92427396 135.22961724 475.30707302 126.375 480.3125 C125.66778809 480.7146875 124.96057617 481.116875 124.23193359 481.53125 C101.09654164 494.5566741 75.92537591 503.30551461 49.9375 508.625 C49.21860596 508.77235596 48.49971191 508.91971191 47.7590332 509.0715332 C33.08339502 511.86090125 18.55831162 512.66142619 3.64770508 512.62817383 C0.70811513 512.6250221 -2.2304558 512.64854926 -5.16992188 512.67382812 C-18.54306192 512.71848737 -31.43916711 511.51301542 -44.625 509.3125 C-46.33055054 509.03031616 -46.33055054 509.03031616 -48.07055664 508.74243164 C-91.33802759 500.97044532 -132.38793216 480.98345309 -165.625 452.3125 C-166.37007813 451.67828125 -167.11515625 451.0440625 -167.8828125 450.390625 C-181.38779833 438.57948485 -194.05918743 425.82889772 -204.625 411.3125 C-205.48149066 410.16255169 -206.33826433 409.01281411 -207.1953125 407.86328125 C-213.23534209 399.67315742 -218.61867614 391.16870382 -223.625 382.3125 C-224.0271875 381.60528809 -224.429375 380.89807617 -224.84375 380.16943359 C-237.8691741 357.03404164 -246.61801461 331.86287591 -251.9375 305.875 C-252.08485596 305.15610596 -252.23221191 304.43721191 -252.3840332 303.6965332 C-255.35789088 288.05024391 -255.99800362 272.57681954 -255.9375 256.6875 C-255.93534485 255.66959381 -255.9331897 254.65168762 -255.93096924 253.60293579 C-255.88129854 238.99386477 -255.63040191 224.66174147 -252.625 210.3125 C-252.42632324 209.33764648 -252.22764648 208.36279297 -252.02294922 207.35839844 C-241.90232806 158.9765226 -219.9858123 114.98821731 -185.625 79.3125 C-184.99287598 78.65314453 -184.36075195 77.99378906 -183.70947266 77.31445312 C-174.56502521 67.82619695 -165.26765991 59.0862956 -154.625 51.3125 C-153.47394983 50.45443848 -152.32290823 49.59636549 -151.171875 48.73828125 C-142.98224019 42.70072604 -134.47961724 37.31792698 -125.625 32.3125 C-124.91778809 31.9103125 -124.21057617 31.508125 -123.48193359 31.09375 C-100.34654164 18.0683259 -75.17537591 9.31948539 -49.1875 4 C-48.46860596 3.85264404 -47.74971191 3.70528809 -47.0090332 3.5534668 C-31.36274391 0.57960912 -15.88931954 -0.06050362 0 0 Z " fill="#4B4B89" transform="translate(255.625,-0.3125)"/>
<path d="M0 0 C1.01790619 0.00215515 2.03581238 0.0043103 3.08456421 0.00653076 C17.69363523 0.05620146 32.02575853 0.30709809 46.375 3.3125 C47.34985352 3.51117676 48.32470703 3.70985352 49.32910156 3.91455078 C97.7109774 14.03517194 141.69928269 35.9516877 177.375 70.3125 C178.3640332 71.26068604 178.3640332 71.26068604 179.37304688 72.22802734 C188.86130305 81.37247479 197.6012044 90.66984009 205.375 101.3125 C206.23306152 102.46355017 207.09113451 103.61459177 207.94921875 104.765625 C213.98736829 112.95680614 219.34595521 121.47054105 224.375 130.3125 C224.73948242 130.94430176 225.10396484 131.57610352 225.47949219 132.22705078 C247.08534998 169.97532572 256.85198095 212.74189997 256.6875 255.9375 C256.68534485 256.95540619 256.6831897 257.97331238 256.68096924 259.02206421 C256.63129854 273.63113523 256.38040191 287.96325853 253.375 302.3125 C253.07698486 303.77478027 253.07698486 303.77478027 252.77294922 305.26660156 C242.65232806 353.6484774 220.7358123 397.63678269 186.375 433.3125 C185.74287598 433.97185547 185.11075195 434.63121094 184.45947266 435.31054688 C175.31502521 444.79880305 166.01765991 453.5387044 155.375 461.3125 C154.22394983 462.17056152 153.07290823 463.02863451 151.921875 463.88671875 C143.73224019 469.92427396 135.22961724 475.30707302 126.375 480.3125 C125.66778809 480.7146875 124.96057617 481.116875 124.23193359 481.53125 C101.09654164 494.5566741 75.92537591 503.30551461 49.9375 508.625 C49.21860596 508.77235596 48.49971191 508.91971191 47.7590332 509.0715332 C33.08339502 511.86090125 18.55831162 512.66142619 3.64770508 512.62817383 C0.70811513 512.6250221 -2.2304558 512.64854926 -5.16992188 512.67382812 C-18.54306192 512.71848737 -31.43916711 511.51301542 -44.625 509.3125 C-46.33055054 509.03031616 -46.33055054 509.03031616 -48.07055664 508.74243164 C-91.33802759 500.97044532 -132.38793216 480.98345309 -165.625 452.3125 C-166.37007813 451.67828125 -167.11515625 451.0440625 -167.8828125 450.390625 C-181.38779833 438.57948485 -194.05918743 425.82889772 -204.625 411.3125 C-205.48149066 410.16255169 -206.33826433 409.01281411 -207.1953125 407.86328125 C-213.23534209 399.67315742 -218.61867614 391.16870382 -223.625 382.3125 C-224.0271875 381.60528809 -224.429375 380.89807617 -224.84375 380.16943359 C-237.8691741 357.03404164 -246.61801461 331.86287591 -251.9375 305.875 C-252.08485596 305.15610596 -252.23221191 304.43721191 -252.3840332 303.6965332 C-255.35789088 288.05024391 -255.99800362 272.57681954 -255.9375 256.6875 C-255.93534485 255.66959381 -255.9331897 254.65168762 -255.93096924 253.60293579 C-255.88129854 238.99386477 -255.63040191 224.66174147 -252.625 210.3125 C-252.42632324 209.33764648 -252.22764648 208.36279297 -252.02294922 207.35839844 C-241.90232806 158.9765226 -219.9858123 114.98821731 -185.625 79.3125 C-184.99287598 78.65314453 -184.36075195 77.99378906 -183.70947266 77.31445312 C-174.56502521 67.82619695 -165.26765991 59.0862956 -154.625 51.3125 C-153.47394983 50.45443848 -152.32290823 49.59636549 -151.171875 48.73828125 C-142.98224019 42.70072604 -134.47961724 37.31792698 -125.625 32.3125 C-124.91778809 31.9103125 -124.21057617 31.508125 -123.48193359 31.09375 C-100.34654164 18.0683259 -75.17537591 9.31948539 -49.1875 4 C-48.46860596 3.85264404 -47.74971191 3.70528809 -47.0090332 3.5534668 C-31.36274391 0.57960912 -15.88931954 -0.06050362 0 0 Z M-44.625 53.3125 C-45.4396875 53.49973633 -46.254375 53.68697266 -47.09375 53.87988281 C-86.02594709 63.14869125 -120.45983177 83.02339263 -148.625 111.3125 C-149.16705078 111.85197266 -149.70910156 112.39144531 -150.26757812 112.94726562 C-187.53768578 150.40395705 -207.12273898 203.34490238 -207 255.6875 C-206.99945618 256.56412292 -206.99891235 257.44074585 -206.99835205 258.34393311 C-206.9567579 272.98141416 -205.92190882 287.00808773 -202.625 301.3125 C-202.42132813 302.23015137 -202.21765625 303.14780273 -202.0078125 304.09326172 C-190.09989895 356.36495937 -156.32401969 403.28139954 -111.11132812 431.90380859 C-81.42855934 450.15317272 -46.15699948 463.19730077 -10.97265625 463.55078125 C-10.16367386 463.5605751 -9.35469147 463.57036896 -8.52119446 463.58045959 C9.78919228 463.75633054 27.43944509 463.44632165 45.375 459.3125 C46.29265137 459.10882813 47.21030273 458.90515625 48.15576172 458.6953125 C100.49385849 446.7722727 147.02969803 413.04735877 175.86816406 367.97900391 C188.61098205 347.49365999 197.67207795 325.60173348 203.125 302.125 C203.42325684 300.84423584 203.42325684 300.84423584 203.72753906 299.53759766 C206.88477866 285.22712487 207.75007094 271.28007212 207.6875 256.6875 C207.68567719 255.80509644 207.68385437 254.92269287 207.68197632 254.0135498 C207.63639943 240.90700128 207.19979524 228.1577396 204.375 215.3125 C204.20339355 214.50087402 204.03178711 213.68924805 203.85498047 212.85302734 C199.80106755 194.09054743 193.63936406 176.13935484 184.375 159.3125 C184.01067871 158.64186523 183.64635742 157.97123047 183.27099609 157.28027344 C173.08673731 138.70046771 160.39610986 122.22850834 145.375 107.3125 C144.85728027 106.79751953 144.33956055 106.28253906 143.80615234 105.75195312 C132.07631005 94.23467799 118.63853777 84.44420403 104.375 76.3125 C103.46258545 75.7855957 103.46258545 75.7855957 102.53173828 75.24804688 C83.41146341 64.30010863 62.87483818 56.9686642 41.375 52.3125 C40.18463135 52.04566406 40.18463135 52.04566406 38.97021484 51.7734375 C12.53854888 46.12272291 -18.43713005 47.23175596 -44.625 53.3125 Z " fill="#525297" transform="translate(255.625,-0.3125)"/>
<path d="M0 0 C5.07603802 2.30857104 8.72519055 6.90879799 12.59011841 10.81993103 C13.52984497 11.73580994 14.46957153 12.65168884 15.43777466 13.59532166 C16.76228638 14.92273376 16.76228638 14.92273376 18.11355591 16.27696228 C18.92485962 17.08754089 19.73616333 17.89811951 20.572052 18.73326111 C22.21511841 21.00743103 22.21511841 21.00743103 22.07107544 23.18736267 C20.97948081 25.50848017 19.58970831 26.8884478 17.71511841 28.63243103 C15.09705195 31.04354019 15.09705195 31.04354019 13.21511841 34.00743103 C14.01949341 34.04868103 14.82386841 34.08993103 15.65261841 34.13243103 C24.91016679 36.40621484 31.5378582 43.94277996 37.96511841 50.56993103 C38.78882935 51.40717712 39.61254028 52.24442322 40.46121216 53.10704041 C42.04263731 54.71520462 43.62123123 56.3261594 45.19656372 57.94029236 C48.09558872 60.90909311 51.03363652 63.83721535 53.98171997 66.75718689 C55.97786118 68.73475359 57.97153217 70.71478902 59.96511841 72.69493103 C60.6496106 73.37104431 61.33410278 74.04715759 62.03933716 74.74375916 C62.69031372 75.39151306 63.34129028 76.03926697 64.01199341 76.70664978 C64.60335083 77.29277039 65.19470825 77.87889099 65.8039856 78.48277283 C68.73953966 81.65449171 68.48161055 84.61299483 68.44168091 88.74571228 C68.13778206 91.77946116 67.12463786 93.65725325 65.21511841 96.00743103 C64.22511841 96.50243103 64.22511841 96.50243103 63.21511841 97.00743103 C63.54511841 98.32743103 63.87511841 99.64743103 64.21511841 101.00743103 C66.04649076 101.75293285 66.04649076 101.75293285 68.21511841 102.00743103 C69.93215318 101.01526182 69.93215318 101.01526182 71.42312622 99.36705017 C72.32360687 98.46600304 72.32360687 98.46600304 73.24227905 97.54675293 C74.19563141 96.55469093 74.19563141 96.55469093 75.16824341 95.54258728 C75.82846497 94.87529099 76.48868652 94.20799469 77.16891479 93.52047729 C79.27963747 91.38171558 81.37234501 89.22624533 83.46511841 87.06993103 C84.89105034 85.61892883 86.31812002 84.16904378 87.74636841 82.72032166 C91.24929648 79.16219766 94.73616084 75.58898943 98.21511841 72.00743103 C97.33775024 72.0283783 96.46038208 72.04932556 95.556427 72.07090759 C92.27995158 72.13935703 89.00424328 72.18936154 85.72732544 72.22715759 C84.31314046 72.24718946 82.89903744 72.27442351 81.48513794 72.30918884 C79.44440422 72.35808592 77.40477151 72.38048226 75.36355591 72.39805603 C73.52543335 72.42947693 73.52543335 72.42947693 71.650177 72.46153259 C67.02852926 71.8505685 63.73622144 69.94338034 60.84011841 66.25743103 C59.86126735 62.73356722 59.45724184 59.57742857 60.21511841 56.00743103 C62.41498296 52.11594649 64.7724778 49.59816749 68.93386841 47.89414978 C72.62555421 46.89651564 76.31464185 46.25963543 80.09011841 45.69493103 C90.61546372 44.03507963 101.01095069 41.81181089 111.42996216 39.59288025 C115.68519099 38.69841683 119.94916568 37.84905725 124.21511841 37.00743103 C123.62601685 36.48793884 123.03691528 35.96844666 122.42996216 35.43321228 C121.67843872 34.73582947 120.92691528 34.03844666 120.15261841 33.31993103 C119.39851685 32.63543884 118.64441528 31.95094666 117.86746216 31.24571228 C116.21511841 29.00743103 116.21511841 29.00743103 116.35696411 26.65782166 C118.0500359 21.42880678 122.6344933 17.9776028 126.46511841 14.19493103 C127.75482544 12.86945251 127.75482544 12.86945251 129.07058716 11.51719666 C129.90718872 10.68252869 130.74379028 9.84786072 131.60574341 8.98789978 C132.36919067 8.22372742 133.13263794 7.45955505 133.91921997 6.67222595 C136.21511841 5.00743103 136.21511841 5.00743103 138.42152405 4.50672913 C142.84637838 5.29980525 145.12768453 8.22404101 148.20852661 11.35386658 C148.89200668 12.02858505 149.57548676 12.70330353 150.27967834 13.39846802 C152.53783687 15.63460113 154.77719285 17.88855475 157.01589966 20.14414978 C158.57743935 21.7023223 160.13972071 23.25975188 161.70271301 24.81646729 C164.97652457 28.08290315 168.24111088 31.35822297 171.49954224 34.63999939 C175.68047236 38.8494162 179.88344602 43.03598982 184.09357929 47.21617413 C187.32390691 50.42844847 190.54224804 53.65251921 193.75707054 56.88030434 C195.30238822 58.42896141 196.85143969 59.97390186 198.40423012 61.51506615 C200.57136883 63.6695301 202.72186888 65.83933127 204.86868286 68.01402283 C205.51537933 68.65059814 206.16207581 69.28717346 206.82836914 69.94303894 C211.08749458 74.30538463 211.08749458 74.30538463 211.72155762 77.79330444 C210.52484965 83.02525112 205.22154232 86.74730314 201.52761841 90.38243103 C200.61560669 91.32215759 199.70359497 92.26188416 198.76394653 93.23008728 C197.43460083 94.554599 197.43460083 94.554599 196.07839966 95.90586853 C195.26669312 96.71717224 194.45498657 97.52847595 193.61868286 98.36436462 C191.21511841 100.00743103 191.21511841 100.00743103 188.53738403 99.86558533 C184.46354479 98.36016639 182.10374104 95.1226123 179.21511841 92.00743103 C178.83307251 92.81825134 178.45102661 93.62907166 178.05740356 94.46446228 C173.74240756 103.09194339 168.65008978 109.33308835 161.59011841 116.00743103 C160.66199341 116.90848572 159.73386841 117.80954041 158.77761841 118.73789978 C157.0585195 120.40527794 155.33325794 122.06634768 153.59939575 123.71836853 C149.93164519 127.23964943 146.35746921 130.85084744 142.80496216 134.48789978 C141.58759289 135.72365435 140.37014364 136.95933013 139.15261841 138.19493103 C138.54095825 138.823349 137.9292981 139.45176697 137.29910278 140.09922791 C136.70291138 140.70186462 136.10671997 141.30450134 135.49246216 141.92539978 C134.95870972 142.46962585 134.42495728 143.01385193 133.87503052 143.5745697 C131.00286993 146.05386231 128.65390247 146.94119947 124.90261841 147.50743103 C119.94697212 146.83547899 117.62968764 144.49465067 114.21511841 141.00743103 C112.23511841 141.99743103 112.23511841 141.99743103 110.21511841 143.00743103 C109.8343036 146.78146111 109.8343036 146.78146111 111.31607056 148.58940125 C111.83125244 149.09570068 112.34643433 149.60200012 112.87722778 150.12364197 C113.45782959 150.70394165 114.0384314 151.28424133 114.6366272 151.88212585 C115.5881366 152.80266754 115.5881366 152.80266754 116.55886841 153.74180603 C117.20255371 154.37983154 117.84623901 155.01785706 118.50942993 155.67521667 C120.56880424 157.71218884 122.64164464 159.73482239 124.71511841 161.75743103 C126.11316287 163.13541561 127.51031007 164.51431115 128.90652466 165.89414978 C132.33239797 169.27590467 135.77041417 172.6448639 139.21511841 176.00743103 C139.19417114 175.19588562 139.17322388 174.38434021 139.15164185 173.54820251 C139.06814757 169.84723961 139.01635086 166.14647537 138.96511841 162.44493103 C138.93160278 161.16811462 138.89808716 159.89129822 138.86355591 158.57579041 C138.79018667 151.5140012 138.78594685 146.66376755 143.21511841 141.00743103 C146.13256132 138.56308697 147.86646476 138.05180513 151.65261841 137.56993103 C156.14382493 138.12148271 157.92442244 138.86298821 161.21511841 142.00743103 C165.00454829 149.69881302 166.40273322 158.17236144 167.85348511 166.54673767 C168.46639282 170.08163767 169.11073911 173.61079478 169.75418091 177.14024353 C169.87862579 177.82616577 170.00307068 178.51208801 170.13128662 179.21879578 C171.53569621 186.88715249 173.28207499 194.45719086 175.21511841 202.00743103 C175.6624231 201.50211853 176.10972778 200.99680603 176.57058716 200.47618103 C177.17515747 199.82649353 177.77972778 199.17680603 178.40261841 198.50743103 C179.29013794 197.53289978 179.29013794 197.53289978 180.19558716 196.53868103 C182.82035933 194.54852495 183.97059436 194.57382287 187.21511841 195.00743103 C191.0608746 197.79958197 194.26104453 201.31201138 197.59011841 204.69493103 C198.52984497 205.60694275 199.46957153 206.51895447 200.43777466 207.45860291 C201.32078247 208.34483337 202.20379028 209.23106384 203.11355591 210.14414978 C203.92485962 210.95585632 204.73616333 211.76756287 205.572052 212.60386658 C207.21511841 215.00743103 207.21511841 215.00743103 207.22155762 217.21957397 C205.7111986 221.40329912 202.8762249 223.9196875 199.75515747 227.01670837 C199.08029297 227.70179474 198.40542847 228.3868811 197.71011353 229.09272766 C195.47725187 231.35338217 193.22984365 233.5988769 190.98074341 235.84336853 C189.42428996 237.40759408 187.86828599 238.97226701 186.31271362 240.53736877 C183.05097026 243.81403548 179.78158228 247.08284155 176.5071106 250.3467865 C172.30550502 254.5367843 168.12710574 258.74910818 163.95456314 262.9680233 C160.74799377 266.20400466 157.5277328 269.42608067 154.30330658 272.64426041 C152.75641202 274.19218395 151.21425881 275.7448604 149.67691803 277.3022728 C147.52949652 279.4742766 145.36398044 281.62644788 143.19265747 283.77452087 C142.5576532 284.42481262 141.92264893 285.07510437 141.2684021 285.74510193 C136.90322536 290.00725802 136.90322536 290.00725802 133.42350769 290.00813293 C128.55737529 287.80311048 125.10515383 283.50690389 121.40261841 279.75743103 C120.51896606 278.89762634 119.63531372 278.03782166 118.72488403 277.15196228 C117.89021606 276.31536072 117.0555481 275.47875916 116.19558716 274.61680603 C115.43141479 273.85335876 114.66724243 273.0899115 113.87991333 272.30332947 C111.91438404 269.59269192 111.73455161 268.2839917 112.21511841 265.00743103 C113.71121216 263.05821228 113.71121216 263.05821228 115.65261841 261.31993103 C118.3173902 258.95663106 118.3173902 258.95663106 120.21511841 256.00743103 C119.41074341 255.96618103 118.60636841 255.92493103 117.77761841 255.88243103 C108.76686013 253.66926233 102.17123346 246.39939582 95.84011841 239.99571228 C94.98957886 239.14567123 94.13903931 238.29563019 93.26272583 237.41983032 C91.48103834 235.63581673 89.70300726 233.84814463 87.92849731 232.05699158 C85.20410632 229.30882283 82.46644178 226.57440972 79.72683716 223.84141541 C77.99296775 222.10197461 76.2598669 220.3617673 74.52761841 218.62071228 C73.70793579 217.80194107 72.88825317 216.98316986 72.04373169 216.1395874 C71.29204712 215.37837082 70.54036255 214.61715424 69.76589966 213.83287048 C69.1024353 213.16479874 68.43897095 212.49672699 67.75540161 211.80841064 C65.07879064 208.67877722 64.77403618 205.25075105 64.78152466 201.21446228 C65.59777098 197.05969495 68.45465734 194.09651841 71.21511841 191.00743103 C69.56511841 189.68743103 67.91511841 188.36743103 66.21511841 187.00743103 C55.65511841 197.56743103 45.09511841 208.12743103 34.21511841 219.00743103 C43.48906896 218.88911219 43.48906896 218.88911219 52.76248169 218.73716736 C53.92505493 218.72967468 55.08762817 218.72218201 56.28543091 218.71446228 C57.46895142 218.69875183 58.65247192 218.68304138 59.87185669 218.66685486 C64.5921579 219.14770926 67.98438036 220.57156997 71.09011841 224.19493103 C72.56803869 227.88973175 72.99864243 231.12784608 72.21511841 235.00743103 C68.6969035 241.02244362 64.70917727 242.21166777 58.21511841 244.00743103 C54.39995314 244.90029754 50.56406927 245.65064616 46.71511841 246.38243103 C44.51846899 246.8106378 42.32185554 247.23902908 40.12527466 247.66758728 C38.9975061 247.88559998 37.86973755 248.10361267 36.70779419 248.32823181 C30.85107824 249.46715141 25.00228428 250.64543836 19.15261841 251.81993103 C17.03676894 252.24328784 14.92088689 252.66648184 12.80496216 253.08946228 C11.91671753 253.26711121 11.0284729 253.44476013 10.11331177 253.62779236 C9.48690796 253.75307312 8.86050415 253.87835388 8.21511841 254.00743103 C8.80421997 254.52692322 9.39332153 255.04641541 10.00027466 255.58164978 C10.7517981 256.27903259 11.50332153 256.97641541 12.27761841 257.69493103 C13.03171997 258.37942322 13.78582153 259.06391541 14.56277466 259.76914978 C16.21511841 262.00743103 16.21511841 262.00743103 16.21609497 264.48667908 C14.19569997 269.57462504 9.79828827 273.03474635 5.96511841 276.81993103 C4.67541138 278.14540955 4.67541138 278.14540955 3.35964966 279.49766541 C2.5230481 280.33233337 1.68644653 281.16700134 0.82449341 282.02696228 C-0.32067749 283.17322083 -0.32067749 283.17322083 -1.48898315 284.34263611 C-3.78488159 286.00743103 -3.78488159 286.00743103 -5.99128723 286.50813293 C-10.41614156 285.71505681 -12.69744772 282.79082105 -15.77828979 279.66099548 C-16.46176987 278.98627701 -17.14524994 278.31155853 -17.84944153 277.61639404 C-20.10760005 275.38026093 -22.34695604 273.12630731 -24.58566284 270.87071228 C-26.14720253 269.31253976 -27.70948389 267.75511018 -29.2724762 266.19839478 C-32.54628775 262.93195891 -35.81087406 259.65663909 -39.06930542 256.37486267 C-43.25023554 252.16544586 -47.4532092 247.97887224 -51.66334248 243.79868793 C-54.8936701 240.58641359 -58.11201122 237.36234285 -61.32683372 234.13455772 C-62.87215141 232.58590065 -64.42120287 231.0409602 -65.9739933 229.49979591 C-68.14113202 227.34533196 -70.29163207 225.17553079 -72.43844604 223.00083923 C-73.08514252 222.36426392 -73.73183899 221.7276886 -74.39813232 221.07182312 C-78.65725777 216.70947743 -78.65725777 216.70947743 -79.2913208 213.22155762 C-78.09461283 207.98961094 -72.7913055 204.26755892 -69.09738159 200.63243103 C-68.18536987 199.69270447 -67.27335815 198.75297791 -66.33370972 197.78477478 C-65.44747925 196.90176697 -64.56124878 196.01875916 -63.64816284 195.10899353 C-62.43060303 193.89203796 -62.43060303 193.89203796 -61.18844604 192.65049744 C-58.78488159 191.00743103 -58.78488159 191.00743103 -56.10714722 191.14927673 C-52.03330798 192.65469567 -49.67350422 195.89224976 -46.78488159 199.00743103 C-46.48009888 198.2738739 -46.17531616 197.54031677 -45.86129761 196.78453064 C-41.93404593 188.10137925 -36.53936031 182.03053967 -29.72238159 175.56993103 C-28.73073405 174.60849584 -27.7404918 173.64560902 -26.75167847 172.68125916 C-24.93502827 170.91296498 -23.10992072 169.15560064 -21.27682495 167.40415955 C-17.57004338 163.83901066 -13.95469948 160.18460463 -10.33956909 156.52696228 C-9.11304562 155.29124645 -7.88648247 154.05557002 -6.65988159 152.81993103 C-6.03984253 152.19151306 -5.41980347 151.56309509 -4.78097534 150.91563416 C-4.18156128 150.31299744 -3.58214722 149.71036072 -2.96456909 149.08946228 C-2.42557983 148.54523621 -1.88659058 148.00101013 -1.33126831 147.44029236 C1.31498558 144.98830876 2.90253541 144.03691999 6.52761841 143.69493103 C10.5203088 144.03329462 12.83907691 144.88759102 16.21511841 147.00743103 C16.87511841 147.99743103 17.53511841 148.98743103 18.21511841 150.00743103 C22.00007978 148.49344648 22.22233821 147.99299143 24.21511841 144.00743103 C14.31511841 134.10743103 4.41511841 124.20743103 -5.78488159 114.00743103 C-5.66658334 122.9522903 -5.66658334 122.9522903 -5.51461792 131.89659119 C-5.50712524 133.01855896 -5.49963257 134.14052673 -5.49191284 135.29649353 C-5.47620239 136.43811951 -5.46049194 137.57974548 -5.44430542 138.75596619 C-5.97979951 143.86830332 -7.66331245 147.03880313 -11.53488159 150.38243103 C-15.35738605 152.29368326 -17.56157162 152.54494321 -21.78488159 152.00743103 C-26.05925065 150.16168076 -27.75271847 148.1354059 -29.78488159 144.00743103 C-30.79466229 140.39205634 -31.51054261 136.72913462 -32.23019409 133.04649353 C-32.44553802 131.98256378 -32.66088196 130.91863403 -32.88275146 129.82246399 C-33.56737937 126.42750715 -34.23854149 123.03003754 -34.90988159 119.63243103 C-35.36868778 117.35361809 -35.82831433 115.07497015 -36.28878784 112.79649353 C-39.89636282 94.84246601 -39.89636282 94.84246601 -40.78488159 88.00743103 C-41.93114482 88.98609441 -43.07687947 89.9653769 -44.22238159 90.94493103 C-45.1795105 91.76284119 -45.1795105 91.76284119 -46.15597534 92.59727478 C-47.05479308 93.37538798 -47.94424687 94.16679631 -48.78488159 95.00743103 C-52.13108124 95.48933881 -53.43451377 95.26181009 -56.20431519 93.25083923 C-58.87232797 90.62197692 -61.53264526 87.98966134 -64.15988159 85.31993103 C-65.09960815 84.40791931 -66.03933472 83.49590759 -67.00753784 82.55625916 C-67.89054565 81.67002869 -68.77355347 80.78379822 -69.68331909 79.87071228 C-70.4946228 79.05900574 -71.30592651 78.24729919 -72.14181519 77.41099548 C-73.78488159 75.00743103 -73.78488159 75.00743103 -73.7913208 72.79528809 C-72.28096179 68.61156294 -69.44598808 66.09517456 -66.32492065 62.99815369 C-65.65005615 62.31306732 -64.97519165 61.62798096 -64.27987671 60.9221344 C-62.04701505 58.66147989 -59.79960683 56.41598516 -57.55050659 54.17149353 C-55.99405314 52.60726798 -54.43804918 51.04259505 -52.88247681 49.47749329 C-49.62073344 46.20082658 -46.35134546 42.93202051 -43.07687378 39.66807556 C-38.87526821 35.47807776 -34.69686893 31.26575388 -30.52432632 27.04683876 C-27.31775696 23.8108574 -24.09749599 20.5887814 -20.87306976 17.37060165 C-19.32617521 15.82267812 -17.78402199 14.27000166 -16.24668121 12.71258926 C-14.0992597 10.54058546 -11.93374363 8.38841418 -9.76242065 6.24034119 C-9.12741638 5.59004944 -8.49241211 4.93975769 -7.83816528 4.26976013 C-3.4746965 0.0092717 -3.4746965 0.0092717 0 0 Z " fill="#FAFAFB" transform="translate(189.78488159179688,110.99256896972656)"/>
<path d="M0 0 C1.05495667 1.02065048 1.05495667 1.02065048 2.13122559 2.06192017 C2.93805786 2.83047333 3.74489014 3.59902649 4.57617188 4.39086914 C5.42642944 5.23444977 6.27668701 6.0780304 7.15270996 6.94717407 C8.47885315 8.24336166 8.47885315 8.24336166 9.83178711 9.56573486 C11.6953479 11.3989263 13.5508472 13.24034359 15.39880371 15.08926392 C17.29168375 16.98263256 19.20351787 18.85270708 21.13708496 20.70449829 C23.92326481 23.38077248 26.66669415 26.09474093 29.40270996 28.82217407 C30.70238708 30.05718155 30.70238708 30.05718155 32.02832031 31.31713867 C37.57584706 36.99568404 37.57584706 36.99568404 38.02258301 41.06222534 C36.45849663 51.49357507 28.62363007 59.14321713 21.49645996 66.30264282 C20.72012207 67.08896591 19.94378418 67.875289 19.1439209 68.68544006 C17.51406289 70.33038139 15.88021327 71.97137655 14.24255371 73.60855103 C11.73754871 76.12017135 9.25757005 78.65489382 6.77770996 81.1913147 C5.18543029 82.79238767 3.59172934 84.3920487 1.99645996 85.99014282 C1.25879395 86.74936539 0.52112793 87.50858795 -0.2388916 88.29081726 C-5.41774309 93.4014731 -5.41774309 93.4014731 -9.64416504 94.14614868 C-12.25354004 93.54873657 -12.25354004 93.54873657 -14.25354004 91.54873657 C-14.20309741 87.86642432 -13.28128391 86.57928995 -10.78479004 83.82998657 C-9.27586211 82.4166108 -7.74004961 81.03660538 -6.20275879 79.65420532 C-3.11485435 76.76184101 -1.56364747 74.82821912 -1.25354004 70.54873657 C-3.44717075 69.55950379 -3.44717075 69.55950379 -6.25354004 69.54873657 C-8.51670795 71.27337669 -10.27872254 72.87316283 -12.21057129 74.91983032 C-12.75839767 75.47614639 -13.30622406 76.03246246 -13.87065125 76.6056366 C-15.61702002 78.38559029 -17.34138999 80.18525546 -19.06604004 81.98623657 C-20.24628966 83.19657892 -21.42791508 84.40558133 -22.61096191 85.6131897 C-25.5080142 88.57639362 -28.38550614 91.55744832 -31.25354004 94.54873657 C-33.56354004 92.56873657 -35.87354004 90.58873657 -38.25354004 88.54873657 C-36.38906629 84.81978908 -35.03744634 83.14663463 -32.08557129 80.36123657 C-31.27539551 79.5800647 -30.46521973 78.79889282 -29.63049316 77.99404907 C-27.91470986 76.35797847 -26.19329603 74.7277933 -24.46643066 73.10342407 C-23.66012207 72.3222522 -22.85381348 71.54108032 -22.02307129 70.73623657 C-21.2764624 70.02854126 -20.52985352 69.32084595 -19.76062012 68.59170532 C-17.97911141 66.66358064 -17.97911141 66.66358064 -18.51794434 64.28701782 C-18.76069092 63.71338501 -19.0034375 63.1397522 -19.25354004 62.54873657 C-23.76375621 63.02682344 -25.56625791 64.44794747 -28.58166504 67.76748657 C-29.38217285 68.61697876 -30.18268066 69.46647095 -31.00744629 70.34170532 C-32.66434699 72.1386258 -34.31289467 73.94328642 -35.95275879 75.75576782 C-42.84674324 83.02478502 -42.84674324 83.02478502 -48.14416504 83.49014282 C-48.85089355 83.46895386 -49.55762207 83.44776489 -50.2857666 83.42593384 C-53.94774509 83.65446674 -55.77915989 86.01249691 -58.25354004 88.54873657 C-59.3960137 90.83368389 -59.35047241 92.26284303 -59.44104004 94.79873657 C-59.80873292 98.4638043 -60.54032438 100.47033237 -63.06604004 103.17373657 C-66.25354004 105.54873657 -66.25354004 105.54873657 -68.31213379 105.32608032 C-70.92138223 104.28133095 -72.38920341 102.61282355 -74.25354004 100.54873657 C-72.66261952 96.41234322 -69.64879086 93.31660409 -66.25354004 90.54873657 C-65.59354004 90.54873657 -64.93354004 90.54873657 -64.25354004 90.54873657 C-64.05010986 90.01570923 -63.84667969 89.48268188 -63.63708496 88.9335022 C-61.67363398 85.54917377 -58.92174391 83.07236776 -56.11682129 80.39248657 C-54.8878876 79.19369625 -53.65938467 77.9944642 -52.43127441 76.79483032 C-50.4938399 74.91334259 -48.55278543 73.03602125 -46.60388184 71.16641235 C-44.72212447 69.35694822 -42.85616667 67.53236166 -40.99182129 65.70498657 C-40.40234207 65.14758789 -39.81286285 64.59018921 -39.20552063 64.01589966 C-37.38735831 62.27898992 -37.38735831 62.27898992 -35.25354004 59.54873657 C-35.53633842 57.39842596 -35.53633842 57.39842596 -36.25354004 55.54873657 C-41.33103125 55.90499067 -43.77005047 58.61463339 -47.06994629 62.15029907 C-48.1746917 63.2909941 -49.27951163 64.43161696 -50.38439941 65.57217407 C-52.10841412 67.37727539 -53.82805028 69.18640642 -55.54528809 70.99795532 C-57.2097664 72.74659398 -58.88898022 74.48002785 -60.56994629 76.21279907 C-61.33571739 77.03610214 -61.33571739 77.03610214 -62.11695862 77.8760376 C-63.5838623 79.38320923 -63.5838623 79.38320923 -66.25354004 81.54873657 C-69.40060669 81.49530826 -70.15408874 80.63990026 -72.50354004 78.48623657 C-73.36979004 77.52717407 -73.36979004 77.52717407 -74.25354004 76.54873657 C-72.69856181 72.80967758 -70.40260856 70.47945143 -67.52844238 67.6600647 C-67.05022537 67.1879808 -66.57200836 66.71589691 -66.07929993 66.22950745 C-65.04417325 65.20864937 -64.00681541 64.19004973 -62.96747971 63.17347717 C-61.32361801 61.56446325 -59.68700353 59.94839939 -58.05227661 58.33010864 C-53.40478113 53.73147331 -48.74616287 49.14422812 -44.07873535 44.56582642 C-41.22156085 41.7621618 -38.3741581 38.9488776 -35.53258133 36.12940979 C-34.44784154 35.05709703 -33.35932022 33.98859583 -32.26700974 32.92399597 C-30.74210627 31.43745204 -29.22985833 29.93905723 -27.71984863 28.43740845 C-26.85540131 27.58787598 -25.99095398 26.73834351 -25.10031128 25.86306763 C-22.83772139 23.52111892 -22.83772139 23.52111892 -23.25354004 19.54873657 C-25.09299194 19.57230225 -25.09299194 19.57230225 -26.96960449 19.59634399 C-31.51494795 19.65060269 -36.06026274 19.68507186 -40.60583496 19.71353149 C-42.57398287 19.72862739 -44.5420971 19.74910605 -46.51013184 19.77505493 C-49.33744616 19.81140306 -52.16431614 19.82845471 -54.99182129 19.84170532 C-55.87316238 19.85718918 -56.75450348 19.87267303 -57.66255188 19.8886261 C-58.48317612 19.88885269 -59.30380035 19.88907928 -60.14929199 19.88931274 C-60.87099075 19.89597458 -61.59268951 19.90263641 -62.33625793 19.90950012 C-64.83252452 19.43979251 -65.72641235 18.5441052 -67.25354004 16.54873657 C-67.37854004 14.04873657 -67.37854004 14.04873657 -66.25354004 11.54873657 C-61.26702797 9.0185892 -56.44704654 7.79323801 -50.96838379 6.82998657 C-50.19023819 6.68597412 -49.41209259 6.54196167 -48.61036682 6.39358521 C-46.13860264 5.93755714 -43.66500553 5.49265133 -41.19104004 5.04873657 C-38.75061182 4.60414083 -36.31063652 4.15715993 -33.87088013 3.70889282 C-32.27542483 3.41576274 -30.6797021 3.1240844 -29.08370972 2.83389282 C-23.09610157 1.73552108 -17.16540851 0.46420222 -11.23620605 -0.9180603 C-3.55720539 -2.29081445 -3.55720539 -2.29081445 0 0 Z " fill="#4E4E8B" transform="translate(324.2535400390625,156.45126342773438)"/>
<path d="M0 0 C2.31 1.98 4.62 3.96 7 6 C5.09866774 9.80266452 3.63348128 11.54736902 0.61328125 14.40625 C-0.24201172 15.23253906 -1.09730469 16.05882812 -1.97851562 16.91015625 C-3.79063739 18.64258124 -5.60840224 20.36912197 -7.43164062 22.08984375 C-8.28306641 22.91613281 -9.13449219 23.74242187 -10.01171875 24.59375 C-10.80022217 25.34333984 -11.58872559 26.09292969 -12.40112305 26.86523438 C-14.27740383 28.86352387 -14.27740383 28.86352387 -13.74926758 31.27539062 C-13.50200928 31.84451172 -13.25475098 32.41363281 -13 33 C-9.16642387 32.48013873 -7.20550813 31.70280706 -4.49487305 28.94897461 C-3.85458664 28.30838608 -3.21430023 27.66779755 -2.55461121 27.00779724 C-1.8804567 26.31299759 -1.20630219 25.61819794 -0.51171875 24.90234375 C0.5430793 23.83905602 0.5430793 23.83905602 1.6191864 22.75428772 C3.85986096 20.49124831 6.08621772 18.21469069 8.3125 15.9375 C9.83045671 14.39947863 11.34932658 12.86235793 12.86914062 11.32617188 C16.59009835 7.56114509 20.29827623 3.78393511 24 0 C26.31 1.98 28.62 3.96 31 6 C28.91027467 10.17945067 26.39838929 12.77474177 23.08203125 15.9375 C21.89867096 17.0907175 20.71574092 18.24437661 19.53320312 19.3984375 C17.66819019 21.20750251 15.79956553 23.01238794 13.9230957 24.80957031 C12.11083206 26.54953305 10.31438837 28.30461208 8.51953125 30.0625 C7.66812309 30.86578735 7.66812309 30.86578735 6.79951477 31.68530273 C5.04715113 33.35655715 5.04715113 33.35655715 3 36 C2.99262568 38.32473652 2.99262568 38.32473652 4 40 C9.26406311 39.68732579 11.92838251 36.5889439 15.39453125 32.99609375 C15.98674973 32.39821548 16.5789682 31.80033722 17.18913269 31.18434143 C19.07320469 29.27792983 20.94287154 27.35806809 22.8125 25.4375 C24.08956854 24.14036347 25.36755339 22.84412838 26.64648438 21.54882812 C29.77504052 18.37623663 32.89075189 15.19151172 36 12 C38.31 13.98 40.62 15.96 43 18 C41.38207319 21.23585361 40.44195891 22.83246068 38 25.25 C37.484375 25.77078125 36.96875 26.2915625 36.4375 26.828125 C35 28 35 28 33 28 C32.75041534 28.57621094 32.50083069 29.15242188 32.24368286 29.74609375 C30.82260131 32.32149676 29.20495379 34.00779766 27.10107422 36.0625 C25.90005569 37.24392578 25.90005569 37.24392578 24.67477417 38.44921875 C23.81014557 39.29097656 22.94551697 40.13273437 22.0546875 41 C20.23801171 42.79139336 18.42161382 44.58306859 16.60546875 46.375 C13.73409278 49.19662319 10.86006335 52.01539399 7.97998047 54.828125 C5.20451112 57.54339203 2.44143455 60.27078708 -0.3203125 63 C-1.62332809 64.26263672 -1.62332809 64.26263672 -2.95266724 65.55078125 C-3.74704193 66.33839844 -4.54141663 67.12601562 -5.35986328 67.9375 C-6.06442657 68.62714844 -6.76898987 69.31679688 -7.49490356 70.02734375 C-9.40438915 72.11646851 -9.40438915 72.11646851 -9 76 C-7.1605481 75.97643433 -7.1605481 75.97643433 -5.28393555 75.95239258 C-0.73859208 75.89813389 3.8067227 75.86366471 8.35229492 75.83520508 C10.32044283 75.82010918 12.28855706 75.79963052 14.2565918 75.77368164 C17.08390612 75.73733351 19.9107761 75.72028186 22.73828125 75.70703125 C23.61962234 75.69154739 24.50096344 75.67606354 25.40901184 75.66011047 C26.22963608 75.65988388 27.05026031 75.65965729 27.89575195 75.65942383 C28.97830009 75.64943108 28.97830009 75.64943108 30.0827179 75.63923645 C32.58053727 76.10923624 33.48542661 76.99122318 35 79 C34.875 81.5625 34.875 81.5625 34 84 C30.91081258 86.05945828 29.23555512 86.48968308 25.64453125 87.11328125 C24.55841553 87.30696289 23.4722998 87.50064453 22.35327148 87.70019531 C21.18481689 87.90225586 20.0163623 88.10431641 18.8125 88.3125 C8.51057114 90.14672057 -1.73696177 92.13480876 -11.95581055 94.38793945 C-13.32539917 94.68317505 -13.32539917 94.68317505 -14.72265625 94.984375 C-15.89453491 95.24299316 -15.89453491 95.24299316 -17.09008789 95.50683594 C-18.05035889 95.66958008 -19.01062988 95.83232422 -20 96 C-20.72986618 96.19125961 -21.45973236 96.38251923 -22.2117157 96.57957458 C-26.19644078 97.38524713 -28.83710975 97.67511366 -32.43284607 95.58761597 C-35.03257811 93.39156675 -37.39646142 91.07584294 -39.76171875 88.62890625 C-40.63778275 87.75862289 -41.51384674 86.88833954 -42.41645813 85.99168396 C-44.257431 84.14943517 -46.08479206 82.29349596 -47.89916992 80.42504883 C-49.76236879 78.51225602 -51.63151135 76.61958955 -53.53491211 74.74829102 C-56.28182864 72.04509325 -58.99504639 69.31229962 -61.69921875 66.56640625 C-62.54796066 65.72960831 -63.39670258 64.89281036 -64.27116394 64.03065491 C-69.88474862 58.16273139 -69.88474862 58.16273139 -70.39379883 53.02709961 C-67.93776867 43.69188085 -61.17549274 36.55798476 -54.53125 29.9296875 C-53.3334491 28.71903122 -53.3334491 28.71903122 -52.1114502 27.48391724 C-50.43565774 25.79672219 -48.75471293 24.11463022 -47.06884766 22.4375 C-44.48931288 19.86433929 -41.93771584 17.2654823 -39.38671875 14.6640625 C-37.74901693 13.02181929 -36.1097482 11.38113683 -34.46875 9.7421875 C-33.70921021 8.96422821 -32.94967041 8.18626892 -32.16711426 7.38473511 C-26.84070983 2.15036792 -26.84070983 2.15036792 -22.59570312 1.39111328 C-20 2 -20 2 -18 4 C-18.05044263 7.68231225 -18.97225613 8.96944663 -21.46875 11.71875 C-22.97767793 13.13212577 -24.51349043 14.51213119 -26.05078125 15.89453125 C-29.13868569 18.78689556 -30.68989257 20.72051746 -31 25 C-28.81825191 26.00913936 -28.81825191 26.00913936 -26 26 C-23.66787212 24.20556626 -21.82609882 22.52622364 -19.82421875 20.41015625 C-19.25419632 19.83164413 -18.68417389 19.25313202 -18.09687805 18.65708923 C-16.27920227 16.80582239 -14.48347801 14.93480048 -12.6875 13.0625 C-11.45907222 11.80398035 -10.22926985 10.54680084 -8.99804688 9.29101562 C-5.98252653 6.2093353 -2.98653134 3.10977197 0 0 Z " fill="#4E4E8B" transform="translate(220,261)"/>
<path d="M0 0 C5.88724928 0.24150027 8.43302559 1.7022347 12.48876953 5.88696289 C12.98894592 6.39429459 13.48912231 6.90162628 14.00445557 7.42433167 C15.08226978 8.52154674 16.15308108 9.62567655 17.21747208 10.73591805 C18.90262592 12.49331913 20.60569025 14.23146242 22.31442261 15.96592712 C25.93511757 19.64821327 29.5308221 23.35435627 33.125 27.0625 C37.29826098 31.36336368 41.48133337 35.65403683 45.68471909 39.92547417 C47.36233299 41.63923547 49.02372931 43.36769134 50.68484497 45.09742737 C51.71252278 46.14646179 52.74087816 47.194833 53.77001953 48.24243164 C54.66157745 49.16318985 55.55313538 50.08394806 56.47171021 51.03260803 C58.84288447 53.23508443 58.84288447 53.23508443 61.82687378 53.29734802 C62.54400543 53.19922318 63.26113708 53.10109833 64 53 C63.98952637 51.76846191 63.97905273 50.53692383 63.96826172 49.26806641 C63.93212911 44.70966485 63.90912415 40.15127602 63.89013672 35.59277344 C63.88006373 33.61781691 63.86640479 31.64287534 63.84912109 29.66796875 C63.82492961 26.83329582 63.81353009 23.99881962 63.8046875 21.1640625 C63.79436493 20.27756012 63.78404236 19.39105774 63.77340698 18.47769165 C63.7730093 16.31714048 63.87727466 14.15706282 64 12 C66 10 66 10 68.4375 9.625 C71 10 71 10 72.6003418 11.74609375 C74.0697592 14.11233506 74.55030269 15.70253148 74.95703125 18.4375 C75.0972168 19.31897705 75.23740234 20.2004541 75.38183594 21.10864258 C75.59501465 22.5398645 75.59501465 22.5398645 75.8125 24 C77.49215402 34.54383218 79.646901 44.93211559 82.06958008 55.33007812 C82.44505981 57.00166992 82.44505981 57.00166992 82.828125 58.70703125 C83.0540332 59.6813208 83.27994141 60.65561035 83.51269531 61.65942383 C83.67350586 62.76181396 83.83431641 63.8642041 84 65 C84.11895126 65.75306931 84.23790253 66.50613861 84.36045837 67.2820282 C84.716027 71.23496792 84.64224453 73.94624293 82.54330444 77.39006042 C80.4051442 79.91749373 78.15498968 82.23129287 75.78515625 84.54296875 C74.94085556 85.3968367 74.09655487 86.25070465 73.22666931 87.13044739 C71.44065035 88.92325248 69.64201482 90.70356598 67.83178711 92.47192383 C65.06716316 95.18292728 62.36002823 97.94324629 59.65429688 100.71289062 C57.90944782 102.45113256 56.16149975 104.18627039 54.41015625 105.91796875 C53.60353043 106.74483688 52.7969046 107.57170502 51.96583557 108.42362976 C46.49021856 113.67800115 46.49021856 113.67800115 42.76437378 114.48306274 C32.35955797 114.00224396 24.0929235 105.70610071 17.18359375 98.75 C16.40105728 97.97366211 15.61852081 97.19732422 14.81227112 96.39746094 C13.17642217 94.76866267 11.54560156 93.13479974 9.91967773 91.49609375 C7.42832317 88.99077172 4.91371704 86.51053935 2.39648438 84.03125 C0.80323552 82.43895152 -0.78861253 80.8452499 -2.37890625 79.25 C-3.12983047 78.51233398 -3.8807547 77.77466797 -4.6544342 77.01464844 C-7.70503278 73.90850978 -9.74124979 71.79661336 -11.10131836 67.609375 C-11 65 -11 65 -9 63 C-4.52222205 63.03744856 -2.49470063 63.57999589 0.94921875 66.50390625 C1.87799138 67.50887239 2.79069005 68.5289104 3.6875 69.5625 C5.39859333 71.49917927 7.09808288 73.23206172 9 75 C10.32 75 11.64 75 13 75 C13.4201181 72.71958226 13.4201181 72.71958226 13 70 C10.82101423 67.29063967 10.82101423 67.29063967 8 64.8125 C6.30301937 63.240436 4.62842928 61.64296882 3 60 C3 59.34 3 58.68 3 58 C2.44828125 57.77570313 1.8965625 57.55140625 1.328125 57.3203125 C-1.71211744 55.59614817 -3.81425673 53.37484178 -6.25 50.875 C-7.14203125 49.96492188 -8.0340625 49.05484375 -8.953125 48.1171875 C-9.62859375 47.41851562 -10.3040625 46.71984375 -11 46 C-9.50179841 42.18639594 -7.19998733 40.46073339 -4 38 C-3.42032471 38.61109619 -2.84064941 39.22219238 -2.2434082 39.85180664 C-0.08429975 42.11320569 2.08804917 44.36076113 4.27026367 46.59985352 C5.21166298 47.57141653 6.14760601 48.54829762 7.07788086 49.53051758 C8.41633519 50.94178382 9.77629757 52.33255315 11.13671875 53.72265625 C11.94842529 54.56578369 12.76013184 55.40891113 13.59643555 56.27758789 C15.89002187 58.31390092 15.89002187 58.31390092 18.80395508 57.76733398 C19.89099731 57.38750366 19.89099731 57.38750366 21 57 C20.48998899 52.8247741 18.25641486 50.93789671 15.30859375 48.0859375 C14.84389175 47.63022369 14.37918976 47.17450989 13.90040588 46.70498657 C12.41974943 45.25429058 10.92957988 43.81393731 9.4375 42.375 C7.47180993 40.47212868 5.51377335 38.56218814 3.55859375 36.6484375 C2.68517334 35.80458496 1.81175293 34.96073242 0.91186523 34.09130859 C-1 32 -1 32 -1 30 C-1.53625 29.79375 -2.0725 29.5875 -2.625 29.375 C-6.0017654 27.42003056 -8.30474839 24.81776305 -11 22 C-9.50179841 18.18639594 -7.19998733 16.46073339 -4 14 C-2.81241089 15.23472046 -2.81241089 15.23472046 -1.60083008 16.49438477 C1.33781003 19.54154466 4.29619903 22.56886861 7.26098633 25.59057617 C8.54186323 26.90164483 9.81730595 28.21804535 11.0871582 29.53979492 C12.91258832 31.43792862 14.75664878 33.31608272 16.60546875 35.19140625 C17.17025436 35.78715958 17.73503998 36.3829129 18.31694031 36.99671936 C20.10326835 38.85297756 20.10326835 38.85297756 23 41 C25.83018479 41.02906376 25.83018479 41.02906376 28 40 C27.74642512 34.44996115 24.33093822 31.9135965 20.5234375 28.34375 C19.20029453 27.06143138 17.87738484 25.77887202 16.5546875 24.49609375 C14.4612064 22.48979998 12.36306539 20.48867424 10.25976562 18.49267578 C8.23073522 16.55997212 6.2202749 14.60938854 4.2109375 12.65625 C3.57457367 12.0634021 2.93820984 11.4705542 2.28256226 10.85974121 C0.68390428 9.29808108 -0.75162556 7.85364913 -2 6 C-1.9539354 3.33463831 -1.90872482 1.90872482 0 0 Z " fill="#4E4E8B" transform="translate(273,247)"/>
<path d="M0 0 C8.61636243 3.25219617 14.96584171 8.92533523 21.37078857 15.37220764 C22.17789276 16.17311325 22.98499695 16.97401886 23.81655884 17.79919434 C25.50368322 19.4792666 27.18577598 21.16440569 28.86297607 22.85438538 C31.43772611 25.44311795 34.03578294 28.00677053 36.63641357 30.56947327 C38.27849046 32.21059995 39.91916715 33.8531291 41.55828857 35.49720764 C42.33624786 36.26190872 43.11420715 37.0266098 43.91574097 37.81448364 C44.62423187 38.53550766 45.33272278 39.25653168 46.06268311 39.99940491 C46.68982208 40.62750565 47.31696106 41.25560638 47.96310425 41.90274048 C49.67155269 44.41367978 49.70965983 45.88944591 49.30047607 48.86830139 C47.30047607 50.86830139 47.30047607 50.86830139 45.01531982 51.33314514 C40.57477973 50.57282245 38.33120918 47.10848288 35.49383545 43.86634827 C32.2636931 40.36130018 30.06959504 39.14222722 25.30047607 38.86830139 C24.85854028 41.1249914 24.85854028 41.1249914 25.30047607 43.86830139 C26.99306259 45.99697652 28.59733066 47.74944964 30.55047607 49.60658264 C31.08318115 50.13221298 31.61588623 50.65784332 32.16473389 51.19940186 C33.86525716 52.87198467 35.5823442 54.52633073 37.30047607 56.18080139 C38.45786243 57.31310457 39.6141268 58.44655581 40.76922607 59.58119202 C43.60013949 62.35704089 46.44603361 65.11666188 49.30047607 67.86830139 C46.79086069 73.04840494 46.79086069 73.04840494 44.30047607 74.86830139 C40.44039137 74.50411346 38.70291224 72.57374813 36.11297607 69.83314514 C34.94121826 68.61981506 34.94121826 68.61981506 33.74578857 67.38197327 C32.11362872 65.66246939 30.48342296 63.9411086 28.85516357 62.21791077 C28.0739917 61.41031311 27.29281982 60.60271545 26.48797607 59.77064514 C25.78028076 59.02290833 25.07258545 58.27517151 24.34344482 57.504776 C22.2164226 55.45151204 22.2164226 55.45151204 18.30047607 55.86830139 C17.72628702 58.05638876 17.72628702 58.05638876 18.30047607 60.86830139 C20.2733269 63.57386677 22.67337105 65.82113403 25.08172607 68.13783264 C25.76980347 68.8188353 26.45788086 69.49983795 27.16680908 70.20147705 C29.36657679 72.37326285 31.58308912 74.5270221 33.80047607 76.68080139 C35.29510199 78.15034969 36.78860618 79.62103979 38.28094482 81.09291077 C41.94123877 84.6980845 45.61664642 88.28718662 49.30047607 91.86830139 C47.94110522 94.72889049 46.65527138 96.72757838 44.30047607 98.86830139 C40.36520111 97.28053443 37.99527642 94.71852399 35.08953857 91.67689514 C34.08216341 90.63936096 33.07433687 89.60226488 32.06610107 88.56556702 C30.49194027 86.93564241 28.92201019 85.30215875 27.36004639 83.66053772 C25.84362022 82.07134409 24.31173934 80.49842032 22.77703857 78.92689514 C21.87034424 77.98128723 20.9636499 77.03567932 20.02947998 76.06141663 C17.00703981 73.63248658 15.12158389 73.13261282 11.30047607 72.86830139 C10.58006043 74.7148295 10.58006043 74.7148295 10.30047607 76.86830139 C12.16418089 79.17931845 13.97740562 81.12585013 16.10906982 83.16517639 C16.70977798 83.75880981 17.31048615 84.35244324 17.92939758 84.96406555 C19.85419757 86.86083591 21.79563484 88.73951374 23.73797607 90.61830139 C25.0444466 91.89970036 26.34980038 93.182239 27.6539917 94.46595764 C30.85666913 97.61345187 34.07437787 100.7448245 37.30047607 103.86830139 C34.79086069 109.04840494 34.79086069 109.04840494 32.30047607 110.86830139 C28.13981515 110.564252 26.12337811 108.02271347 23.32000732 105.14906311 C22.83816986 104.65963226 22.3563324 104.17020142 21.8598938 103.66593933 C20.81663641 102.60459629 19.77679991 101.53988217 18.74002075 100.47220993 C17.09972071 98.78434919 15.44939327 97.10692275 13.7958374 95.43205261 C9.09730361 90.66930156 4.41737183 85.88846018 -0.25518799 81.10023499 C-3.11517535 78.17088484 -5.98712895 75.25371173 -8.8666687 72.34358597 C-9.96234208 71.23110356 -11.05317382 70.11383154 -12.1390686 68.99180222 C-13.65460343 67.42604375 -15.18474402 65.87608152 -16.71905518 64.32875061 C-17.58635254 63.44130157 -18.4536499 62.55385254 -19.347229 61.63951111 C-21.52013295 59.58877075 -21.52013295 59.58877075 -24.01080322 60.08952332 C-24.56808105 60.34652008 -25.12535889 60.60351685 -25.69952393 60.86830139 C-25.68905029 62.09983948 -25.67857666 63.33137756 -25.66778564 64.60023499 C-25.63165304 69.15863654 -25.60864808 73.71702537 -25.58966064 78.27552795 C-25.57958765 80.25048448 -25.56592871 82.22542605 -25.54864502 84.20033264 C-25.52445353 87.03500557 -25.51305401 89.86948177 -25.50421143 92.70423889 C-25.49388885 93.59074127 -25.48356628 94.47724365 -25.47293091 95.39060974 C-25.47253323 97.55116091 -25.57679859 99.71123858 -25.69952393 101.86830139 C-27.69952393 103.86830139 -27.69952393 103.86830139 -30.19952393 104.18080139 C-31.02452393 104.07767639 -31.84952393 103.97455139 -32.69952393 103.86830139 C-34.86757173 100.61622969 -35.33396931 98.49084116 -36.06671143 94.68080139 C-36.31074707 93.43355286 -36.55478271 92.18630432 -36.80621338 90.90126038 C-37.06250716 89.55697698 -37.31860684 88.21265656 -37.57452393 86.86830139 C-38.10466156 84.12954915 -38.63860852 81.39154259 -39.17218018 78.65345764 C-39.30301498 77.97823563 -39.43384979 77.30301361 -39.56864929 76.60733032 C-40.31609333 72.7656643 -41.10169077 68.9359902 -41.94561768 65.11439514 C-42.12818115 64.28617249 -42.31074463 63.45794983 -42.49884033 62.60462952 C-42.82358259 61.1499325 -43.15450997 59.69659056 -43.49395752 58.24525452 C-43.96274831 56.12667086 -44.33295923 54.00713159 -44.69952393 51.86830139 C-44.89043106 50.90311081 -45.0813382 49.93792023 -45.2780304 48.94348145 C-46.52504695 40.47964065 -46.52504695 40.47964065 -44.33381653 36.20257568 C-42.22765071 33.61448376 -40.00061973 31.33151849 -37.58233643 29.03236389 C-36.31376297 27.75792923 -36.31376297 27.75792923 -35.01956177 26.45774841 C-33.23204301 24.67819874 -31.42730105 22.91580145 -29.60675049 21.1700592 C-26.82471014 18.49348054 -24.11264445 15.7582257 -21.40264893 13.00892639 C-19.65382883 11.28372791 -17.90134134 9.56223747 -16.14483643 7.84486389 C-15.33507355 7.02740692 -14.52531067 6.20994995 -13.69100952 5.36772156 C-9.27617583 1.20329921 -6.19885518 -1.40179138 0 0 Z " fill="#4D4D8A" transform="translate(201.69952392578125,151.13169860839844)"/>
<path d="M0 0 C4.17615799 1.63743934 6.9648153 4.69781792 10.05371094 7.82666016 C10.64926285 8.42192001 11.24481476 9.01717987 11.8584137 9.63047791 C13.82184643 11.59530177 15.77810373 13.56711039 17.734375 15.5390625 C19.0958564 16.90427479 20.45778061 18.26904561 21.82012939 19.63339233 C25.40183824 23.22273159 28.9774999 26.8180368 32.55194092 30.41461182 C36.20157121 34.08471319 39.85688092 37.74914829 43.51171875 41.4140625 C50.68005329 48.60383652 57.842013 55.79992516 65 63 C64.0449028 64.12120157 63.08882049 65.24156401 62.13232422 66.36157227 C61.6000119 66.98556412 61.06769958 67.60955597 60.51925659 68.25245667 C58.79809702 70.23224136 56.998427 72.10154154 55.125 73.9375 C54.52945313 74.52402344 53.93390625 75.11054688 53.3203125 75.71484375 C52.66675781 76.35099609 52.66675781 76.35099609 52 77 C47.88411984 75.36634462 45.09711606 72.39978457 42.0222168 69.32861328 C41.14110985 68.45999161 41.14110985 68.45999161 40.24220276 67.57382202 C38.30573898 65.66142057 36.37698959 63.74147408 34.44921875 61.8203125 C33.10740221 60.48746116 31.76550761 59.1546884 30.42353821 57.82199097 C27.61480855 55.0297408 24.81049379 52.23313549 22.00854492 49.43408203 C18.41090333 45.84184032 14.79736463 42.26605324 11.17970562 38.69398689 C8.40471616 35.94867151 5.64098031 33.19223879 2.88028908 30.43255234 C1.55224543 29.10872583 0.22006365 27.78903757 -1.11623573 26.47354507 C-2.97919949 24.63730981 -4.82584704 22.78607823 -6.66918945 20.93017578 C-7.22754486 20.38665466 -7.78590027 19.84313354 -8.36117554 19.28314209 C-12.00268247 15.57019694 -12.00268247 15.57019694 -11.9896698 12.8041687 C-10.34428434 9.80462991 -7.8913233 7.58434876 -5.4375 5.25 C-4.91736328 4.74339844 -4.39722656 4.23679687 -3.86132812 3.71484375 C-2.58089916 2.46965595 -1.29132446 1.23388498 0 0 Z " fill="#4F4F8C" transform="translate(132,311)"/>
<path d="M0 0 C4.11588016 1.63365538 6.90288394 4.60021543 9.9777832 7.67138672 C10.56518784 8.25046783 11.15259247 8.82954895 11.75779724 9.42617798 C13.69426102 11.33857943 15.62301041 13.25852592 17.55078125 15.1796875 C18.89259779 16.51253884 20.23449239 17.8453116 21.57646179 19.17800903 C24.38519145 21.9702592 27.18950621 24.76686451 29.99145508 27.56591797 C33.58909667 31.15815968 37.20263537 34.73394676 40.82029438 38.30601311 C43.59528384 41.05132849 46.35901969 43.80776121 49.11971092 46.56744766 C50.44775457 47.89127417 51.77993635 49.21096243 53.11623573 50.52645493 C54.97919949 52.36269019 56.82584704 54.21392177 58.66918945 56.06982422 C59.22754486 56.61334534 59.78590027 57.15686646 60.36117554 57.71685791 C64.00268247 61.42980306 64.00268247 61.42980306 63.9896698 64.1958313 C62.34428434 67.19537009 59.8913233 69.41565124 57.4375 71.75 C56.65729492 72.50990234 56.65729492 72.50990234 55.86132812 73.28515625 C54.58089916 74.53034405 53.29132446 75.76611502 52 77 C47.82384201 75.36256066 45.0351847 72.30218208 41.94628906 69.17333984 C41.35073715 68.57807999 40.75518524 67.98282013 40.1415863 67.36952209 C38.17815357 65.40469823 36.22189627 63.43288961 34.265625 61.4609375 C32.9041436 60.09572521 31.54221939 58.73095439 30.17987061 57.36660767 C26.59816176 53.77726841 23.0225001 50.1819632 19.44805908 46.58538818 C15.79842879 42.91528681 12.14311908 39.25085171 8.48828125 35.5859375 C1.31994671 28.39616348 -5.842013 21.20007484 -13 14 C-12.0449028 12.87879843 -11.08882049 11.75843599 -10.13232422 10.63842773 C-9.6000119 10.01443588 -9.06769958 9.39044403 -8.51925659 8.74754333 C-6.79809702 6.76775864 -4.998427 4.89845846 -3.125 3.0625 C-2.23167969 2.18271484 -2.23167969 2.18271484 -1.3203125 1.28515625 C-0.66675781 0.64900391 -0.66675781 0.64900391 0 0 Z " fill="#4F4F8C" transform="translate(328,125)"/>
<path d="M0 0 C3.76363368 1.76199891 6.32604243 3.96201534 9.3125 6.875 C10.21613281 7.73867187 11.11976563 8.60234375 12.05078125 9.4921875 C14 12 14 12 13.77407932 13.98193741 C12.48428547 17.34449296 9.8126971 19.575944 7.28686523 22.05371094 C6.6917514 22.64926285 6.09663757 23.24481476 5.48348999 23.8584137 C3.51555224 25.82426219 1.53720323 27.77927273 -0.44140625 29.734375 C-1.80826478 31.09563809 -3.17446226 32.45756523 -4.5400238 33.82012939 C-8.13541502 37.40406787 -11.73972443 40.97890601 -15.34594727 44.55194092 C-19.02445792 48.19976018 -22.69448762 51.85608983 -26.36523438 55.51171875 C-33.56853474 62.68284736 -40.78128257 69.84439333 -48 77 C-52.00374431 75.16307611 -54.71957934 72.50882084 -57.75 69.375 C-58.25660156 68.859375 -58.76320312 68.34375 -59.28515625 67.8125 C-60.52803902 66.54616661 -61.76465276 65.2736856 -63 64 C-59.20301491 59.46479694 -55.28288646 55.13986003 -51.08642578 50.97290039 C-50.5295961 50.41592468 -49.97276642 49.85894897 -49.39906311 49.28509521 C-47.58351 47.47023101 -45.76445606 45.65892089 -43.9453125 43.84765625 C-42.67571469 42.57992626 -41.40633952 41.31197327 -40.13717651 40.04380798 C-36.81532426 36.72575224 -33.49047867 33.41071211 -30.16497803 30.09631348 C-26.76440491 26.70601645 -23.36670263 23.31284494 -19.96875 19.91992188 C-13.31528981 13.27714838 -6.65866041 6.63756054 0 0 Z " fill="#4F4F8C" transform="translate(188,120)"/>
<path d="M0 0 C3.60430766 1.68273685 5.85951096 3.68139687 8.625 6.5625 C11.51070681 9.69042054 11.51070681 9.69042054 15 12 C13.36170963 16.16533368 10.31971435 18.96158915 7.20507812 22.05371094 C6.31700722 22.9470388 6.31700722 22.9470388 5.41099548 23.8584137 C3.45607647 25.82212334 1.49394678 27.77844134 -0.46875 29.734375 C-1.82902839 31.09600044 -3.18900976 32.45792268 -4.54870605 33.82012939 C-7.39690429 36.67127498 -10.24868616 39.51877419 -13.10302734 42.36376953 C-16.76865042 46.01797671 -20.42519394 49.68111714 -24.07912445 53.34701157 C-26.88411412 56.15921181 -29.69382951 58.96665136 -32.50502014 61.77265167 C-33.85574854 63.12204247 -35.20498338 64.47292995 -36.55271912 65.82530975 C-38.43205448 67.70969948 -40.31763822 69.58760003 -42.20507812 71.46386719 C-42.76514053 72.02797806 -43.32520294 72.59208893 -43.90223694 73.17329407 C-47.771469 77 -47.771469 77 -50 77 C-51.55078125 75.390625 -51.55078125 75.390625 -53.3125 73.25 C-55.98362313 70.09829823 -58.64182828 67.44230671 -62 65 C-61.13403363 60.45485153 -58.49392624 58.09232181 -55.28686523 54.94628906 C-54.6917514 54.35073715 -54.09663757 53.75518524 -53.48348999 53.1415863 C-51.51555224 51.17573781 -49.53720323 49.22072727 -47.55859375 47.265625 C-46.19173522 45.90436191 -44.82553774 44.54243477 -43.4599762 43.17987061 C-39.86458498 39.59593213 -36.26027557 36.02109399 -32.65405273 32.44805908 C-28.97554208 28.80023982 -25.30551238 25.14391017 -21.63476562 21.48828125 C-14.43146526 14.31715264 -7.21871743 7.15560667 0 0 Z " fill="#4F4F8B" transform="translate(373,315)"/>
</svg>
